<?xml version="1.0" encoding="UTF-8"?>
<svg id="Layer_2" data-name="Layer 2" xmlns="http://www.w3.org/2000/svg" viewBox="0 0 90 90">
  <defs>
    <style>
      .cls-1 {
        fill: #c4c4c4;
      }
    </style>
  </defs>
  <g id="Layer_1-2" data-name="Layer 1">
    <path class="cls-1" d="M45,0C20.15,0,0,20.15,0,45s20.15,45,45,45,45-20.15,45-45S69.85,0,45,0Zm30.28,75.28c-8.09,8.09-18.84,12.54-30.28,12.54s-22.19-4.45-30.28-12.54C6.63,67.19,2.17,56.44,2.17,45S6.63,22.81,14.72,14.72c.19-.19,.39-.37,.58-.55-.15,.46-.32,.92-.59,1.32-.64,.95-1.7,1.33-2.37,2.22-.61,.81-1.1,2.04-1.32,2.95-.24,.99-.1,2.18-.44,3.17-.44,1.25-1.24,1.99-1.09,3.44,1.74,.52,.98-2.58,2.45-2.73,.46,1.15,.16,3.3,.03,4.56-.18,1.73-.52,2.16,.51,3.64,.82,1.18,1.09,1.96,2.67,2.15,1.45,.17,2.05,.83,2.66,2.23,1.12,.24,1.8,.42,1.94,1.66,.49,.27,1.4,1.14,1.91,1.28,.74,.19,1.98-.86,2.68-.05,1.17,1.36-1.48,4.92-1.96,6.14-.69,1.8-.8,4.43,.91,5.72,.87,.66,1.8,.98,2.09,2.18,.26,1.11,.06,2.04,.55,3.09,.77,1.64,2.52,2.18,3.78,3.43,1.64,1.64,1.53,3.78,1.53,6.1s.93,4.29,1.25,6.52c.33,2.3,1.01,4.43,1.49,6.66,.36,1.67,1.81,4.2,3.9,3.86,.15-.79-.68-1.41-.78-2.2-.09-.71,.11-1.46-.04-2.22-.28-1.51-.27-2.4,.73-3.71,.35-.46,.84-.85,1.21-1.31,.71-.9,.17-.63,.14-1.62-.04-1.23,.34-.63,1.08-1.01,.39-.2,.81-.8,1.11-1.11,.65-.68,1.65-1.48,2.15-2.29,.56-.9,.49-2.16,1.07-3.09,.66-1.07,1.6-1.07,2.53-1.77,1.2-.9,.71-1.85,.93-3.09,.37-2.07,1.3-4.35,2.61-6,1.64-2.07,2.35-3.84,.35-5.83-.99-.98-1.5-.72-2.81-1.06-1-.26-1.9-.99-2.91-1.12-.61-.07-.97,.14-1.52,0-.52-.14-.46-.45-1-.45-.82,0-1.95,1.71-2.64,.62-.38-.61,.78-2.28,.73-3.09-.07-1-.44-2.62-1.41-3.16-.37-.21-1.19-.24-1.64-.41-.53-.2-1.05-.53-1.53-.84-.62-.4-1.82-1.09-2.1-1.81-.76-.03-1.28-.45-2.06-.44-.7,0-1.16,.33-1.91,.25-.66-.07-1.37-.59-2.08-.5-.47,.07-1.18,.68-1.59,.91-1.08,.61-2.24,1.05-3.44,1.28-1.86,.35-2.19-.36-2.08-2.08l-.28-.55c.69-1.92-.55-2.05-1.92-2.52-.19-1.37,1.49-2.34,.79-3.84-1.42-.07-2.97,3.92-4.17,2.19-.79-1.14,.41-4.33,1.11-5.3,.7-.98,3.26-2.73,4.46-2.89,.94-.12,1.76,.29,2.12,1.12,.39,.9-.12,1.74,0,2.76,1.2-.28,.89-1.8,.84-2.62-.09-1.36,.63-1.26,1.32-2.25,.63-.9,.73-1.92,1.52-2.78,.62-.68,1.34-1.39,2.01-2.01,.77-.71,1.64-.65,2.43-1.17,1.2-.79-.39-2.27,1.38-2.16,.63,.04,.32,.43,1.15,.24,.35-.08,1.01-.41,1.38-.56,1.69-.69,.49-.87-.28-1.76-.99-1.14,.41-.94,1.43-1.11,.75-.13,.59-.37,1.25,.07,.58,.39,.24,.9,1.08,.87,1.6-.05,.49-1.66,.14-2.19-.61-.91-.77-1.55-2.06-1.58,.12-.41,.14-.95-.04-1.34-1.09,.14-1.27-.65-2.09-.96-1.38-.52-1.16,.61-1.73,1.38-.58,.8-1.7,.66-2.12,1.63-.44,1.01-.02,1.78-1.65,1.51,.22-.61,.15-1.39,.1-2.04-.47-.06-.9-.18-1.34-.32,0-1.63,1.8-1.76,3.03-1.92,1.37-.17,1.82-1.57,3.04-1.8,1.14-.22,1.96,1.63,3.37,.56,.8-.61,.43-.97,.14-1.56-.08-.16-.48-.51-.59-.66-.01-.02-.02-.03-.03-.05,1.09-.21,2.2-.37,3.31-.5,.21,.61,.66,1.34,.91,1.76,.18,.31,.52,.52,.67,.86,.17,.39-.22,.87,.26,1.13,.75,.4,2.95-2.22,3.47-2.65,.67-.54,1.09-.84,.93-1.36,3.53,.11,6.98,.64,10.3,1.57,.26,.33,.54,.67,.81,1.05,.58,.81,.95,1.54,2.01,1.9,.61,.21,2.56,.17,1.75,1.56-.75,1.28-1.57-.4-1.95-.8-.52-.56-2.07-1.18-2.02,.1,.07,1.91,4.39,1.61,3.46,3.71,.52,.3,1.54,.81,1.37,1.56-.21,.93-1.42,.34-1.39,1.53,.03,1.68,1.87,3.07,3.58,2.46,1.82-.65,.45-3.17,2.53-3.43,.82-.1,1.31,.14,2.04,.72,.6,.47,.99,1.55,1.81,1.47,.09-.51-.3-.88-.37-1.35,.64,.16,1.93,.96,2.29,1.52,.56,.84,.5,2.06,1.85,.97-.2-.17-.31-.54-.42-.67,1.74,0,2.95,.72,3.7,2.23,1.67,3.37-2.43,.7-2.63,2.45-1.01-.32-1.46-1.13-2.33-1.62-.42-.23-1.18-.11-1.5-.34-.44-.32-.33-.9-.72-1.22-1.51-1.24-4.96,.76-6.35,1.56-.38,.22-.78,.24-1.04,.65-.44,.7,.18,.88,.04,1.53-.2,.93-1.41,1.36-1.78,2.11-.88,1.79,.91,4.36,.67,6.35-.13,1.11-1.33,2.3-.87,3.23,.2,.4,.88,.74,1.15,1.21,.24,.43,.34,.99,.66,1.43,1.02,1.43,2.49,3.03,3.68,4.37,.68,.76,1.6,.97,2.63,.76,.85-.17,2.13-.46,2.91-.83,1.05-.5,1.19-1.21,2.29-.73,.88,.38,1.65,1.5,2.67,.57,.84,.82-.09,2.26-.28,3.18-.24,1.18,.22,2.2,.95,3.2,.87,1.2,1.07,1.41,.89,3.01-.14,1.25-.46,2.39-.72,3.63-.26,1.18-1.01,2.08-.97,3.34,.04,1.16,.54,2.09,.39,3.33-.13,1.09-.2,2.4-.49,3.47-.29,1.1-1.07,2.07-1.39,3.19-.31,1.07-.22,2.45,.52,3.33,.78,.91,1.55,.39,2.46-.3,1.8-1.37,2.62-3.68,3.81-5.52,1.22-1.88,2.45-3.6,3.26-5.55,.17-.41,.38-.82,.59-1.23-1.97,6.9-5.67,13.23-10.88,18.45Z"/>
  </g>
</svg>