<?xml version="1.0" encoding="UTF-8"?>
<svg id="Layer_2" data-name="Layer 2" xmlns="http://www.w3.org/2000/svg" viewBox="0 0 79.33 87.12">
  <defs>
    <style>
      .cls-1 {
        fill: #c4c4c4;
      }
    </style>
  </defs>
  <g id="Layer_1-2" data-name="Layer 1">
    <g>
      <path class="cls-1" d="M39.66,45.17h0c12.46,0,22.6-10.13,22.6-22.58,0-6.02-2.35-11.69-6.62-15.97C51.37,2.35,45.7,0,39.67,0h0c-12.46,0-22.6,10.13-22.6,22.58,0,6.02,2.35,11.69,6.62,15.97,4.27,4.27,9.94,6.62,15.97,6.63Zm0-41.56h0c5.06,0,9.83,1.98,13.42,5.57,3.59,3.59,5.57,8.35,5.57,13.41,0,10.46-8.52,18.97-18.99,18.97h0c-5.06,0-9.83-1.98-13.42-5.57-3.59-3.59-5.57-8.35-5.57-13.41,0-10.46,8.52-18.97,18.99-18.97Z"/>
      <path class="cls-1" d="M69.04,59.07c-5.7-4.94-13.58-7.77-21.61-7.78h-15.5s0,0,0,0c-6.16,0-12.14,1.62-17.28,4.68C7.96,59.94,0,67.92,0,83.37c0,2.06,1.67,3.74,3.73,3.74l71.87,.02h0c2.06,0,3.73-1.68,3.73-3.73h0c0-10.07-3.56-18.48-10.3-24.32Zm6.56,24.44l-71.87-.02c-.07,0-.12-.05-.12-.12,0-11.04,4.33-19.22,12.87-24.3,4.58-2.73,9.92-4.17,15.43-4.17h15.51c13.63,0,28.3,8.92,28.3,28.49,0,.07-.05,.12-.12,.12Z"/>
    </g>
  </g>
</svg>