<?xml version="1.0" encoding="UTF-8"?>
<svg id="Layer_2" data-name="Layer 2" xmlns="http://www.w3.org/2000/svg" xmlns:xlink="http://www.w3.org/1999/xlink" viewBox="0 0 171.9 112.76">
  <defs>
    <style>
      .cls-1 {
        fill: url(#radial-gradient);
      }
    </style>
    <radialGradient id="radial-gradient" cx="91.69" cy="80.67" fx="91.69" fy="80.67" r="59.46" gradientTransform="translate(21.84 174.47) rotate(-91.7) scale(1 .9)" gradientUnits="userSpaceOnUse">
      <stop offset="0" stop-color="#fcaf17"/>
      <stop offset=".24" stop-color="#fbab17"/>
      <stop offset=".46" stop-color="#f9a019"/>
      <stop offset=".67" stop-color="#f78d1b"/>
      <stop offset=".88" stop-color="#f3731f"/>
      <stop offset="1" stop-color="#f16122"/>
    </radialGradient>
  </defs>
  <g id="Layer_1-2" data-name="Layer 1">
    <path class="cls-1" d="M171.77,68.66c-.34-1.78-2.59-1.37-7.25-.64-4.33,.67-2.15,.48-7.56,.62h-2.34s-.02-.01-.02-.02l.14-1.64c.52-3.84,1.85-4.03,1.41-5.18-.44-1.16-5.43-.89-7.56-.89s-2.77,7.11-2.91,7.39c-7.81,.64-8.98,2.69-11.9,7.01-12.4,18.28-15.53,25.77-27.78,25.71-8.19-.04-8.74-10.82-8.05-10.82,.14,0,.83,.42,1.53,.83,1.66,1.11,5.83,2.08,8.74,2.08,3.89,0,6.66-1.25,10.13-4.44,9.99-9.3,6.52-25.53-5.27-25.53-9.69,0-17.55,6.91-21.69,15.51-4.06-8.85-12.05-16.06-21.94-16.06-11.79,0-15.26,16.23-5.27,25.53,3.47,3.19,6.24,4.44,10.13,4.44,2.91,0,7.08-.97,8.74-2.08,.69-.42,1.39-.83,1.53-.83,.69,0,2.39,7.58-8.05,10.82-1.14,.35-10.82,3.31-17.09-.84-3.79-2.51-5.21-10.2-5.71-15.32-.82-8.39-2.88-16.09-4.12-18.23-3.75-6.8-11.1-7.22-18.46-1.11l-2.91,2.5,.28-2.36c.42-5.27,.56-5.41,1.66-5.41,1.94,0,6.66-1.53,10.13-3.19,8.19-4.16,13.04-14.43,11.79-24.98-.55-5-2.5-7.22-6.11-7.35-2.91,0-4.44,1.8-4.16,4.58,1.25,7.91,.56,11.8-2.64,15.96-1.53,2.08-6.11,4.72-8.19,4.72-.97,0-1.11-.14-.97-1.25,.28-2.22,.97-12.21,1.11-16.65,.14-5-.14-5.83-3.75-8.6-2.91-2.22-5.27-3.05-9.57-3.05C.05,19.85-10.49,48.44,16.01,58.01c2.5,.83,3.05,1.25,3.05,2.22,0,.55-.42,5.83-.97,11.66-1.25,12.91-1.8,22.2-1.8,30.39,0,7.08,.42,8.6,2.91,9.85q1.94,.83,3.89,0c2.36-.97,3.89-4.3,3.61-8.19-.28-4.44,2.77-17.48,5.41-23.31,1.94-4.3,5.13-8.33,7.63-9.71,1.11-.56,1.39-.56,1.94,.14,3.3,4.46,1.44,16.45,5.56,28.55,1.25,3.68,4.48,7.34,8.75,9.72,3.66,2.04,6.67,2.51,13.09,2.38,7.73,.04,9.38-.98,12.43-1.95,4.34-1.39,7.47-3.84,9.54-6.91,.01-.02,.04-.02,.05,0,2.07,3.33,5.3,5.98,9.89,7.45,3.05,.97,7.99,.05,11.66-.69,18.49-3.74,24.92-32.32,31.75-31.2,1.66,1.25-2.56,15.05,.07,22.54,3.19,9.16,12.77,11.24,18.87,3.89,3.33-3.89,8.05-16.24,7.91-20.68,0-4.3-3.33-6.8-6.66-5.41-1.8,.83-1.8,.69-3.89,8.33-1.53,5.27-3.33,9.44-4.86,11.38-.83,1.11-.97,1.25-1.67,.28-2.64-3.19-.69-11.36-.14-18.44l.11-1.65c.04-.67,.7-1.14,1.35-.96l4.28-.25s0,0,0,0c5.26-.61,3.04-.26,8.26-1.65,2.65-.71,4.34-3.83,3.72-7.12Zm-61.47,4.72c2.36-.69,2.64-.69,3.47,.14,1.53,1.39,1.25,4.44-.55,6.94-.69,1.11-2.08,2.22-2.77,2.64-.83,.42-2.22,.83-3.05,.83-1.8,0-5.69-1.8-6.11-2.78-.56-1.53,5.27-6.66,9.02-7.77Zm-29.06,7.22c-.42,.97-4.3,2.78-6.11,2.78-.83,0-2.22-.42-3.05-.83-.69-.42-2.08-1.53-2.78-2.64-1.8-2.5-2.08-5.55-.55-6.94,.83-.83,1.11-.83,3.47-.14,3.75,1.11,9.57,6.25,9.02,7.77ZM21.28,42.89c-.41,3.18-.83,5.95-.97,6.24,0,0,0,0,0,0-.57,.41-5.27-1.81-7.49-3.61-5.55-4.16-3.05-11.52,1.25-15.13,2.22-1.8,5.83-2.36,7.22-.97,1.11,.97,1.11,4.02,0,13.46ZM39.91,8.89c0,4.91-3.98,8.9-8.89,8.9s-8.9-3.98-8.9-8.9S26.1,0,31.01,0s8.89,3.98,8.89,8.89Zm119.73,42.26c0,3.84-3.11,6.94-6.94,6.94s-6.94-3.11-6.94-6.94,3.11-6.94,6.94-6.94,6.94,3.11,6.94,6.94Z"/>
  </g>
</svg>